<svg width="32" height="32" viewBox="0 0 32 32" fill="none" xmlns="http://www.w3.org/2000/svg">
  <rect width="32" height="32" rx="8" fill="#0F172A"/>
  <path d="M8 12C8 10.8954 8.89543 10 10 10H14C15.1046 10 16 10.8954 16 12V14C16 15.1046 15.1046 16 14 16H10C8.89543 16 8 15.1046 8 14V12Z" fill="#3B82F6"/>
  <path d="M16 18C16 16.8954 16.8954 16 18 16H22C23.1046 16 24 16.8954 24 18V20C24 21.1046 23.1046 22 22 22H18C16.8954 22 16 21.1046 16 20V18Z" fill="#10B981"/>
  <path d="M10 18C10 16.8954 10.8954 16 12 16H14C15.1046 16 16 16.8954 16 18V20C16 21.1046 15.1046 22 14 22H12C10.8954 22 10 21.1046 10 20V18Z" fill="#F59E0B"/>
  <path d="M18 10C18 8.89543 18.8954 8 20 8H22C23.1046 8 24 8.89543 24 10V12C24 13.1046 23.1046 14 22 14H20C18.8954 14 18 13.1046 18 12V10Z" fill="#EF4444"/>
</svg>
